<?xml version="1.0" encoding="UTF-8"?>
<!DOCTYPE svg PUBLIC "-//W3C//DTD SVG 1.1//EN" "http://www.w3.org/Graphics/SVG/1.1/DTD/svg11.dtd">
<!-- Creator: CorelDRAW -->
<svg xmlns="http://www.w3.org/2000/svg" xml:space="preserve" width="2.08333in" height="0.50987in" version="1.1" style="shape-rendering:geometricPrecision; text-rendering:geometricPrecision; image-rendering:optimizeQuality; fill-rule:evenodd; clip-rule:evenodd"
viewBox="0 0 653.53 159.94"
 xmlns:xlink="http://www.w3.org/1999/xlink"
 xmlns:xodm="http://www.corel.com/coreldraw/odm/2003">
 <defs>
  <style type="text/css">
   <![CDATA[
    .fil0 {fill:white}
   ]]>
  </style>
 </defs>
 <g id="Layer_x0020_1">
  <metadata id="CorelCorpID_0Corel-Layer"/>
  <g id="_1874107788992">
   <path class="fil0" d="M162.23 135.22c-12.88,15.43 -32.13,24.73 -52.5,24.73l-41.3 0c-37.67,0 -68.43,-30.76 -68.43,-68.43l0 -23.08c0,-37.67 30.76,-68.43 68.43,-68.43l41.3 0c28.1,0 53.23,17.5 63.56,43.28l25.26 -14.59c12.18,-7.03 27.33,1.71 27.33,15.78l0 70.99c0,14.07 -15.15,22.81 -27.33,15.78l-61.48 -35.5c-12.18,-7.03 -12.18,-24.53 0,-31.56l7.75 -4.48 0.02 -0.01 -1.52 -4.45c-5.38,-13.57 -18.63,-22.86 -33.59,-22.86l-41.3 0c-19.79,0 -36.04,16.25 -36.04,36.04l0 23.08c0,19.79 16.25,36.04 36.04,36.04l41.3 0c9.02,0 17.22,-3.18 23.75,-8.93l28.75 16.6zm24.94 -68.61c-7.38,0 -13.36,5.98 -13.36,13.36 0,7.38 5.98,13.36 13.36,13.36 7.38,0 13.36,-5.98 13.36,-13.36 0,-7.38 -5.98,-13.36 -13.36,-13.36z"/>
   <g>
    <path class="fil0" d="M617.59 90.27c23.02,0 23.02,-37.44 0,-37.44 -23.56,0 -23.74,37.44 0,37.44zm-92.59 -29.95c-0.33,0.86 -0.6,1.78 -0.81,2.75l28.28 0c-1.22,-12.2 -14.84,-14.75 -22.23,-9.73 -2.33,1.58 -4.08,3.91 -5.24,6.99zm-3.87 -19.72c12.87,-7.68 32.16,-5.83 42.36,5.12 6.91,7.41 9.6,17.59 8.61,27.76 -0.12,1.29 -0.35,2.39 -0.69,3.31l-47.73 0c1.07,8.73 7.08,14.1 16.16,14.1l24.96 0 0 16.22 -24.96 0c-13.6,0 -24.96,-6.14 -31.2,-17.72 -5.87,-10.9 -5.9,-25.52 0.19,-36.19 3.04,-5.32 7.13,-9.53 12.29,-12.6zm-27.33 15.78c1.94,5.23 2.63,11.26 2.06,17.1 -0.13,1.29 -0.35,2.39 -0.69,3.31l-47.74 0c1.07,8.73 7.08,14.1 16.16,14.1l26.8 0 0 16.22 -26.8 0c-13.59,0 -24.96,-6.13 -31.2,-17.72 -5.87,-10.9 -5.9,-25.52 0.19,-36.19 6.21,-10.89 17.01,-17.22 29.76,-17.22 14.6,0 26.4,6.81 31.45,20.4zm-45.86 6.68l28.28 0c-1.22,-12.19 -14.84,-14.75 -22.23,-9.73 -3.2,2.17 -5.16,5.71 -6.05,9.73zm-123.97 44.05c-27.03,0 -46.92,-20.96 -46.92,-48.04 0,-27.43 19.59,-47.92 46.92,-47.92 12.28,0 23.54,4.07 31.82,12.35 3.74,3.74 6.81,9.41 8.39,13.99l-21.2 -0.01c-4.61,-5.81 -11.06,-8.86 -19.01,-8.86 -17.41,0 -27.58,13.3 -27.58,30.45 0,17.14 10.07,30.57 27.58,30.57 10.74,0 19.34,-6.01 22.71,-15.6l19.94 -0.07c-2.99,8.65 -4.1,14.05 -10.83,20.78 -8.28,8.28 -19.54,12.35 -31.82,12.35zm47.42 -0l0 -16.22 11.23 0 0 -37.83 -11.23 0 0 -16.22 28.7 0 0 9.98c1.53,-3.59 3.57,-6.15 6.11,-7.67 5.34,-3.19 10.14,-3.06 16.35,-3.06l0 16.22c-6.49,0 -12.07,-0.65 -16.97,4.18 -2.83,2.79 -4.24,6.72 -4.24,11.79l0 22.61 13.73 0 0 16.22 -43.68 0zm243.96 0c-20.14,0.02 -34.82,-15.86 -34.82,-35.56 0,-19.74 14.95,-35.56 34.69,-35.56 7.43,0 14.52,2.18 19.59,7.22l0 -32.05 18.72 0 0 62.58c0,15.98 -14.53,33.36 -31.65,33.38l-6.54 0.01z"/>
    <g>
     <path class="fil0" d="M373.15 148.79c-3.05,0 -5.73,-1.78 -6.7,-4.67l2.28 -0.96c1.77,4.53 7.56,3.9 7.56,0.96 0,-4.06 -9.18,-1.69 -9.18,-8.02 0,-6.1 9.77,-6.54 11.73,-0.66l-2.23 0.98c-1.92,-5.14 -9.04,-2.33 -6.31,1 1.65,2.01 8.63,1.21 8.63,6.51 0,3.11 -2.75,4.85 -5.78,4.85zm28.31 -0.27l0 -14.57 -4.51 0 0 -2.39 11.61 0 0 2.39 -4.44 0 0 14.57 -2.66 0zm31.97 0.27c-3.66,0 -6.49,-2.46 -6.49,-6.15l0 -11.09 2.69 0c0,2.77 -0.41,11.36 0.49,12.96 1.7,3.01 7.14,2.3 7.14,-1.98l0 -10.97 2.67 0c0,3.77 0.58,11.88 -0.82,14.25 -1.18,1.99 -3.3,2.98 -5.67,2.98zm26.37 -0.27l0 -16.96c5.08,0 10.43,-0.84 13.16,4.03 2.65,4.73 0.69,12.93 -7.61,12.93l-5.56 0zm2.69 -2.39c3.59,0 8.84,0.31 8.84,-6.1 0,-6.38 -5.3,-6.08 -8.84,-6.08l0 12.18zm30.7 2.39l0 -16.96 2.69 0 0 16.96 -2.69 0zm30.95 0.27c-11.53,0 -11.63,-17.51 0,-17.51 11.64,0 11.54,17.51 0,17.51zm0 -2.46c8.07,0 8.05,-12.61 0,-12.61 -8.03,0 -8.05,12.61 0,12.61zm34.21 2.46c-3.05,0 -5.73,-1.78 -6.7,-4.67l2.28 -0.96c1.77,4.53 7.56,3.9 7.56,0.96 0,-4.06 -9.18,-1.69 -9.18,-8.02 0,-6.1 9.77,-6.54 11.73,-0.66l-2.23 0.98c-1.92,-5.14 -9.04,-2.33 -6.31,1 1.65,2.01 8.63,1.21 8.63,6.51 0,3.11 -2.75,4.85 -5.78,4.85z"/>
     <polygon class="fil0" points="584.81,139.02 653.53,139.02 653.53,141.2 584.81,141.2 "/>
     <polygon class="fil0" points="277.05,139.02 345.77,139.02 345.77,141.2 277.05,141.2 "/>
    </g>
   </g>
  </g>
 </g>
</svg>
