<?xml version="1.0" encoding="UTF-8"?>
<!DOCTYPE svg PUBLIC "-//W3C//DTD SVG 1.1//EN" "http://www.w3.org/Graphics/SVG/1.1/DTD/svg11.dtd">
<!-- Creator: CorelDRAW -->
<svg xmlns="http://www.w3.org/2000/svg" xml:space="preserve" width="2.27778in" height="0.704319in" version="1.1" style="shape-rendering:geometricPrecision; text-rendering:geometricPrecision; image-rendering:optimizeQuality; fill-rule:evenodd; clip-rule:evenodd"
viewBox="0 0 193.38 59.8"
 xmlns:xlink="http://www.w3.org/1999/xlink"
 xmlns:xodm="http://www.corel.com/coreldraw/odm/2003">
 <defs>
  <style type="text/css">
   <![CDATA[
    .str0 {stroke:white;stroke-width:16.51;stroke-linecap:round;stroke-linejoin:round;stroke-miterlimit:2.61313}
    .fil1 {fill:none}
    .fil3 {fill:black}
    .fil2 {fill:#084AFF}
    .fil0 {fill:white}
   ]]>
  </style>
 </defs>
 <g id="Layer_x0020_1">
  <metadata id="CorelCorpID_0Corel-Layer"/>
  <rect class="fil0" x="13.53" y="13.85" width="175.64" height="35.52"/>
  <g>
   <path class="fil1 str0" d="M52.16 44.85c-3.49,4.18 -8.7,6.69 -14.21,6.69l-11.18 0c-10.19,0 -18.52,-8.33 -18.52,-18.52l0 -6.25c0,-10.2 8.33,-18.52 18.52,-18.52l11.18 0c7.6,0 14.41,4.74 17.2,11.71l6.84 -3.95c3.3,-1.9 7.4,0.46 7.4,4.27l0 19.21c0,3.81 -4.1,6.17 -7.4,4.27l-16.64 -9.61c-3.3,-1.9 -3.3,-6.64 0,-8.54l2.1 -1.21 0 -0 -0.41 -1.2c-1.46,-3.67 -5.04,-6.19 -9.09,-6.19l-11.18 0c-5.36,0 -9.75,4.4 -9.75,9.75l0 6.25c0,5.36 4.4,9.75 9.75,9.75l11.18 0c2.44,0 4.66,-0.86 6.43,-2.42l7.78 4.49zm123.24 -12.16c6.23,0 6.23,-10.13 0,-10.13 -6.38,0 -6.42,10.13 0,10.13zm-25.06 -8.11c-0.09,0.23 -0.16,0.48 -0.22,0.74l7.65 0c-0.33,-3.3 -4.02,-3.99 -6.02,-2.63 -0.63,0.43 -1.1,1.06 -1.42,1.89zm-1.05 -5.34c3.48,-2.08 8.7,-1.58 11.47,1.38 1.87,2.01 2.6,4.76 2.33,7.51 -0.03,0.35 -0.1,0.65 -0.19,0.89l-12.92 0c0.29,2.36 1.92,3.82 4.37,3.82l6.75 0 0 4.39 -6.75 0c-3.68,0 -6.76,-1.66 -8.44,-4.8 -1.59,-2.95 -1.6,-6.91 0.05,-9.79 0.82,-1.44 1.93,-2.58 3.33,-3.41zm-7.4 4.27c0.53,1.41 0.71,3.05 0.56,4.63 -0.03,0.35 -0.1,0.65 -0.19,0.89l-12.92 0c0.29,2.36 1.92,3.82 4.37,3.82l7.25 0 0 4.39 -7.25 0c-3.68,0 -6.75,-1.66 -8.44,-4.8 -1.59,-2.95 -1.6,-6.91 0.05,-9.79 1.68,-2.95 4.6,-4.66 8.05,-4.66 3.95,0 7.15,1.84 8.51,5.52zm-12.41 1.81l7.65 0c-0.33,-3.3 -4.02,-3.99 -6.02,-2.63 -0.87,0.59 -1.4,1.55 -1.64,2.63zm-33.55 11.92c-7.31,0 -12.7,-5.67 -12.7,-13 0,-7.43 5.3,-12.97 12.7,-12.97 3.32,0 6.37,1.1 8.61,3.34 1.01,1.01 1.84,2.55 2.27,3.79l-5.74 -0c-1.25,-1.57 -2.99,-2.4 -5.14,-2.4 -4.71,0 -7.46,3.6 -7.46,8.24 0,4.64 2.73,8.27 7.46,8.27 2.91,0 5.23,-1.63 6.15,-4.22l5.4 -0.02c-0.81,2.34 -1.11,3.8 -2.93,5.62 -2.24,2.24 -5.29,3.34 -8.61,3.34zm12.83 -0l0 -4.39 3.04 0 0 -10.24 -3.04 0 0 -4.39 7.77 0 0 2.7c0.41,-0.97 0.97,-1.66 1.65,-2.08 1.45,-0.86 2.74,-0.83 4.42,-0.83l0 4.39c-1.76,0 -3.27,-0.18 -4.59,1.13 -0.77,0.75 -1.15,1.82 -1.15,3.19l0 6.12 3.72 0 0 4.39 -11.82 0zm66.03 0c-5.45,0.01 -9.42,-4.29 -9.42,-9.63 0,-5.34 4.05,-9.63 9.39,-9.63 2.01,0 3.93,0.59 5.3,1.95l0 -8.67 5.07 0 0 16.94c0,4.33 -3.93,9.03 -8.57,9.03l-1.77 0zm-65.55 11.28c-0.83,0 -1.55,-0.48 -1.81,-1.26l0.62 -0.26c0.48,1.23 2.05,1.05 2.05,0.26 0,-1.1 -2.48,-0.46 -2.48,-2.17 0,-1.65 2.64,-1.77 3.17,-0.18l-0.6 0.27c-0.52,-1.39 -2.45,-0.63 -1.71,0.27 0.45,0.54 2.34,0.33 2.34,1.76 0,0.84 -0.74,1.31 -1.56,1.31zm7.66 -0.07l0 -3.94 -1.22 0 0 -0.65 3.14 0 0 0.65 -1.2 0 0 3.94 -0.72 0zm8.65 0.07c-0.99,0 -1.76,-0.67 -1.76,-1.66l0 -3 0.73 0c0,0.75 -0.11,3.07 0.13,3.51 0.46,0.81 1.93,0.62 1.93,-0.54l0 -2.97 0.72 0c0,1.02 0.16,3.22 -0.22,3.86 -0.32,0.54 -0.89,0.81 -1.53,0.81zm7.14 -0.07l0 -4.59c1.37,0 2.82,-0.23 3.56,1.09 0.72,1.28 0.19,3.5 -2.06,3.5l-1.5 0zm0.73 -0.65c0.97,0 2.39,0.08 2.39,-1.65 0,-1.73 -1.43,-1.65 -2.39,-1.65l0 3.3zm8.31 0.65l0 -4.59 0.73 0 0 4.59 -0.73 0zm8.38 0.07c-3.12,0 -3.15,-4.74 0,-4.74 3.15,0 3.12,4.74 0,4.74zm0 -0.67c2.18,0 2.18,-3.41 0,-3.41 -2.17,0 -2.18,3.41 0,3.41zm9.26 0.67c-0.83,0 -1.55,-0.48 -1.81,-1.26l0.62 -0.26c0.48,1.23 2.05,1.05 2.05,0.26 0,-1.1 -2.48,-0.46 -2.48,-2.17 0,-1.65 2.64,-1.77 3.17,-0.18l-0.6 0.27c-0.52,-1.39 -2.45,-0.63 -1.71,0.27 0.45,0.54 2.34,0.33 2.34,1.76 0,0.84 -0.74,1.31 -1.56,1.31zm7.16 -2.64l18.6 0 0 0.59 -18.6 0 0 -0.59zm-83.29 0l18.6 0 0 0.59 -18.6 0 0 -0.59zm-24.32 -19.6c-2,0 -3.62,1.62 -3.62,3.62 0,2 1.62,3.62 3.62,3.62 2,0 3.62,-1.62 3.62,-3.62 0,-2 -1.62,-3.62 -3.62,-3.62z"/>
   <path id="_1" class="fil0" d="M52.16 44.85c-3.49,4.18 -8.7,6.69 -14.21,6.69l-11.18 0c-10.19,0 -18.52,-8.33 -18.52,-18.52l0 -6.25c0,-10.2 8.33,-18.52 18.52,-18.52l11.18 0c7.6,0 14.41,4.74 17.2,11.71l6.84 -3.95c3.3,-1.9 7.4,0.46 7.4,4.27l0 19.21c0,3.81 -4.1,6.17 -7.4,4.27l-16.64 -9.61c-3.3,-1.9 -3.3,-6.64 0,-8.54l2.1 -1.21 0 -0 -0.41 -1.2c-1.46,-3.67 -5.04,-6.19 -9.09,-6.19l-11.18 0c-5.36,0 -9.75,4.4 -9.75,9.75l0 6.25c0,5.36 4.4,9.75 9.75,9.75l11.18 0c2.44,0 4.66,-0.86 6.43,-2.42l7.78 4.49zm123.24 -12.16c6.23,0 6.23,-10.13 0,-10.13 -6.38,0 -6.42,10.13 0,10.13zm-25.06 -8.11c-0.09,0.23 -0.16,0.48 -0.22,0.74l7.65 0c-0.33,-3.3 -4.02,-3.99 -6.02,-2.63 -0.63,0.43 -1.1,1.06 -1.42,1.89zm-1.05 -5.34c3.48,-2.08 8.7,-1.58 11.47,1.38 1.87,2.01 2.6,4.76 2.33,7.51 -0.03,0.35 -0.1,0.65 -0.19,0.89l-12.92 0c0.29,2.36 1.92,3.82 4.37,3.82l6.75 0 0 4.39 -6.75 0c-3.68,0 -6.76,-1.66 -8.44,-4.8 -1.59,-2.95 -1.6,-6.91 0.05,-9.79 0.82,-1.44 1.93,-2.58 3.33,-3.41zm-7.4 4.27c0.53,1.41 0.71,3.05 0.56,4.63 -0.03,0.35 -0.1,0.65 -0.19,0.89l-12.92 0c0.29,2.36 1.92,3.82 4.37,3.82l7.25 0 0 4.39 -7.25 0c-3.68,0 -6.75,-1.66 -8.44,-4.8 -1.59,-2.95 -1.6,-6.91 0.05,-9.79 1.68,-2.95 4.6,-4.66 8.05,-4.66 3.95,0 7.15,1.84 8.51,5.52zm-12.41 1.81l7.65 0c-0.33,-3.3 -4.02,-3.99 -6.02,-2.63 -0.87,0.59 -1.4,1.55 -1.64,2.63zm-33.55 11.92c-7.31,0 -12.7,-5.67 -12.7,-13 0,-7.43 5.3,-12.97 12.7,-12.97 3.32,0 6.37,1.1 8.61,3.34 1.01,1.01 1.84,2.55 2.27,3.79l-5.74 -0c-1.25,-1.57 -2.99,-2.4 -5.14,-2.4 -4.71,0 -7.46,3.6 -7.46,8.24 0,4.64 2.73,8.27 7.46,8.27 2.91,0 5.23,-1.63 6.15,-4.22l5.4 -0.02c-0.81,2.34 -1.11,3.8 -2.93,5.62 -2.24,2.24 -5.29,3.34 -8.61,3.34zm12.83 -0l0 -4.39 3.04 0 0 -10.24 -3.04 0 0 -4.39 7.77 0 0 2.7c0.41,-0.97 0.97,-1.66 1.65,-2.08 1.45,-0.86 2.74,-0.83 4.42,-0.83l0 4.39c-1.76,0 -3.27,-0.18 -4.59,1.13 -0.77,0.75 -1.15,1.82 -1.15,3.19l0 6.12 3.72 0 0 4.39 -11.82 0zm66.03 0c-5.45,0.01 -9.42,-4.29 -9.42,-9.63 0,-5.34 4.05,-9.63 9.39,-9.63 2.01,0 3.93,0.59 5.3,1.95l0 -8.67 5.07 0 0 16.94c0,4.33 -3.93,9.03 -8.57,9.03l-1.77 0zm-65.55 11.28c-0.83,0 -1.55,-0.48 -1.81,-1.26l0.62 -0.26c0.48,1.23 2.05,1.05 2.05,0.26 0,-1.1 -2.48,-0.46 -2.48,-2.17 0,-1.65 2.64,-1.77 3.17,-0.18l-0.6 0.27c-0.52,-1.39 -2.45,-0.63 -1.71,0.27 0.45,0.54 2.34,0.33 2.34,1.76 0,0.84 -0.74,1.31 -1.56,1.31zm7.66 -0.07l0 -3.94 -1.22 0 0 -0.65 3.14 0 0 0.65 -1.2 0 0 3.94 -0.72 0zm8.65 0.07c-0.99,0 -1.76,-0.67 -1.76,-1.66l0 -3 0.73 0c0,0.75 -0.11,3.07 0.13,3.51 0.46,0.81 1.93,0.62 1.93,-0.54l0 -2.97 0.72 0c0,1.02 0.16,3.22 -0.22,3.86 -0.32,0.54 -0.89,0.81 -1.53,0.81zm7.14 -0.07l0 -4.59c1.37,0 2.82,-0.23 3.56,1.09 0.72,1.28 0.19,3.5 -2.06,3.5l-1.5 0zm0.73 -0.65c0.97,0 2.39,0.08 2.39,-1.65 0,-1.73 -1.43,-1.65 -2.39,-1.65l0 3.3zm8.31 0.65l0 -4.59 0.73 0 0 4.59 -0.73 0zm8.38 0.07c-3.12,0 -3.15,-4.74 0,-4.74 3.15,0 3.12,4.74 0,4.74zm0 -0.67c2.18,0 2.18,-3.41 0,-3.41 -2.17,0 -2.18,3.41 0,3.41zm9.26 0.67c-0.83,0 -1.55,-0.48 -1.81,-1.26l0.62 -0.26c0.48,1.23 2.05,1.05 2.05,0.26 0,-1.1 -2.48,-0.46 -2.48,-2.17 0,-1.65 2.64,-1.77 3.17,-0.18l-0.6 0.27c-0.52,-1.39 -2.45,-0.63 -1.71,0.27 0.45,0.54 2.34,0.33 2.34,1.76 0,0.84 -0.74,1.31 -1.56,1.31zm7.16 -2.64l18.6 0 0 0.59 -18.6 0 0 -0.59zm-83.29 0l18.6 0 0 0.59 -18.6 0 0 -0.59zm-24.32 -19.6c-2,0 -3.62,1.62 -3.62,3.62 0,2 1.62,3.62 3.62,3.62 2,0 3.62,-1.62 3.62,-3.62 0,-2 -1.62,-3.62 -3.62,-3.62z"/>
  </g>
  <path class="fil2" d="M52.16 44.85c-3.49,4.18 -8.7,6.69 -14.21,6.69l-11.18 0c-10.19,0 -18.52,-8.33 -18.52,-18.52l0 -6.25c0,-10.2 8.33,-18.52 18.52,-18.52l11.18 0c7.6,0 14.41,4.74 17.2,11.71l6.84 -3.95c3.3,-1.9 7.4,0.46 7.4,4.27l0 19.21c0,3.81 -4.1,6.17 -7.4,4.27l-16.64 -9.61c-3.3,-1.9 -3.3,-6.64 0,-8.54l2.1 -1.21 0 -0 -0.41 -1.2c-1.46,-3.67 -5.04,-6.19 -9.09,-6.19l-11.18 0c-5.36,0 -9.75,4.4 -9.75,9.75l0 6.25c0,5.36 4.4,9.75 9.75,9.75l11.18 0c2.44,0 4.66,-0.86 6.43,-2.42l7.78 4.49zm6.75 -18.57c-2,0 -3.62,1.62 -3.62,3.62 0,2 1.62,3.62 3.62,3.62 2,0 3.62,-1.62 3.62,-3.62 0,-2 -1.62,-3.62 -3.62,-3.62z"/>
  <g id="_1873625479760">
   <path class="fil2" d="M175.4 32.69c6.23,0 6.23,-10.13 0,-10.13 -6.38,0 -6.42,10.13 0,10.13zm-25.06 -8.11c-0.09,0.23 -0.16,0.48 -0.22,0.74l7.65 0c-0.33,-3.3 -4.02,-3.99 -6.02,-2.63 -0.63,0.43 -1.1,1.06 -1.42,1.89zm-1.05 -5.34c3.48,-2.08 8.7,-1.58 11.47,1.38 1.87,2.01 2.6,4.76 2.33,7.51 -0.03,0.35 -0.1,0.65 -0.19,0.89l-12.92 0c0.29,2.36 1.92,3.82 4.37,3.82l6.75 0 0 4.39 -6.75 0c-3.68,0 -6.76,-1.66 -8.44,-4.8 -1.59,-2.95 -1.6,-6.91 0.05,-9.79 0.82,-1.44 1.93,-2.58 3.33,-3.41zm-7.4 4.27c0.53,1.41 0.71,3.05 0.56,4.63 -0.03,0.35 -0.1,0.65 -0.19,0.89l-12.92 0c0.29,2.36 1.92,3.82 4.37,3.82l7.25 0 0 4.39 -7.25 0c-3.68,0 -6.75,-1.66 -8.44,-4.8 -1.59,-2.95 -1.6,-6.91 0.05,-9.79 1.68,-2.95 4.6,-4.66 8.05,-4.66 3.95,0 7.15,1.84 8.51,5.52zm-12.41 1.81l7.65 0c-0.33,-3.3 -4.02,-3.99 -6.02,-2.63 -0.87,0.59 -1.4,1.55 -1.64,2.63zm-33.55 11.92c-7.31,0 -12.7,-5.67 -12.7,-13 0,-7.43 5.3,-12.97 12.7,-12.97 3.32,0 6.37,1.1 8.61,3.34 1.01,1.01 1.84,2.55 2.27,3.79l-5.74 -0c-1.25,-1.57 -2.99,-2.4 -5.14,-2.4 -4.71,0 -7.46,3.6 -7.46,8.24 0,4.64 2.73,8.27 7.46,8.27 2.91,0 5.23,-1.63 6.15,-4.22l5.4 -0.02c-0.81,2.34 -1.11,3.8 -2.93,5.62 -2.24,2.24 -5.29,3.34 -8.61,3.34zm12.83 -0l0 -4.39 3.04 0 0 -10.24 -3.04 0 0 -4.39 7.77 0 0 2.7c0.41,-0.97 0.97,-1.66 1.65,-2.08 1.45,-0.86 2.74,-0.83 4.42,-0.83l0 4.39c-1.76,0 -3.27,-0.18 -4.59,1.13 -0.77,0.75 -1.15,1.82 -1.15,3.19l0 6.12 3.72 0 0 4.39 -11.82 0zm66.03 0c-5.45,0.01 -9.42,-4.29 -9.42,-9.63 0,-5.34 4.05,-9.63 9.39,-9.63 2.01,0 3.93,0.59 5.3,1.95l0 -8.67 5.07 0 0 16.94c0,4.33 -3.93,9.03 -8.57,9.03l-1.77 0z"/>
   <g>
    <path class="fil3" d="M109.25 48.52c-0.83,0 -1.55,-0.48 -1.81,-1.26l0.62 -0.26c0.48,1.23 2.05,1.05 2.05,0.26 0,-1.1 -2.48,-0.46 -2.48,-2.17 0,-1.65 2.64,-1.77 3.17,-0.18l-0.6 0.27c-0.52,-1.39 -2.45,-0.63 -1.71,0.27 0.45,0.54 2.34,0.33 2.34,1.76 0,0.84 -0.74,1.31 -1.56,1.31zm7.66 -0.07l0 -3.94 -1.22 0 0 -0.65 3.14 0 0 0.65 -1.2 0 0 3.94 -0.72 0zm8.65 0.07c-0.99,0 -1.76,-0.67 -1.76,-1.66l0 -3 0.73 0c0,0.75 -0.11,3.07 0.13,3.51 0.46,0.81 1.93,0.62 1.93,-0.54l0 -2.97 0.72 0c0,1.02 0.16,3.22 -0.22,3.86 -0.32,0.54 -0.89,0.81 -1.53,0.81zm7.14 -0.07l0 -4.59c1.37,0 2.82,-0.23 3.56,1.09 0.72,1.28 0.19,3.5 -2.06,3.5l-1.5 0zm0.73 -0.65c0.97,0 2.39,0.08 2.39,-1.65 0,-1.73 -1.43,-1.65 -2.39,-1.65l0 3.3zm8.31 0.65l0 -4.59 0.73 0 0 4.59 -0.73 0zm8.38 0.07c-3.12,0 -3.15,-4.74 0,-4.74 3.15,0 3.12,4.74 0,4.74zm0 -0.67c2.18,0 2.18,-3.41 0,-3.41 -2.17,0 -2.18,3.41 0,3.41zm9.26 0.67c-0.83,0 -1.55,-0.48 -1.81,-1.26l0.62 -0.26c0.48,1.23 2.05,1.05 2.05,0.26 0,-1.1 -2.48,-0.46 -2.48,-2.17 0,-1.65 2.64,-1.77 3.17,-0.18l-0.6 0.27c-0.52,-1.39 -2.45,-0.63 -1.71,0.27 0.45,0.54 2.34,0.33 2.34,1.76 0,0.84 -0.74,1.31 -1.56,1.31z"/>
    <polygon class="fil3" points="166.53,45.88 185.13,45.88 185.13,46.47 166.53,46.47 "/>
    <polygon class="fil3" points="83.24,45.88 101.84,45.88 101.84,46.47 83.24,46.47 "/>
   </g>
  </g>
 </g>
</svg>
