<?xml version="1.0" encoding="UTF-8"?>
<!DOCTYPE svg PUBLIC "-//W3C//DTD SVG 1.1//EN" "http://www.w3.org/Graphics/SVG/1.1/DTD/svg11.dtd">
<!-- Creator: CorelDRAW -->
<svg xmlns="http://www.w3.org/2000/svg" xml:space="preserve" width="0.53324in" height="0.377567in" version="1.1" style="shape-rendering:geometricPrecision; text-rendering:geometricPrecision; image-rendering:optimizeQuality; fill-rule:evenodd; clip-rule:evenodd"
viewBox="0 0 70 49.56"
 xmlns:xlink="http://www.w3.org/1999/xlink"
 xmlns:xodm="http://www.corel.com/coreldraw/odm/2003">
 <defs>
  <style type="text/css">
   <![CDATA[
    .fil0 {fill:white}
   ]]>
  </style>
 </defs>
 <g id="Layer_x0020_1">
  <metadata id="CorelCorpID_0Corel-Layer"/>
  <path class="fil0" d="M50.27 41.9c-3.99,4.78 -9.96,7.66 -16.27,7.66l-12.8 0c-11.67,0 -21.21,-9.53 -21.21,-21.21l0 -7.15c0,-11.67 9.53,-21.21 21.21,-21.21l12.8 0c8.71,0 16.49,5.42 19.7,13.41l7.83 -4.52c3.78,-2.18 8.47,0.53 8.47,4.89l0 22c0,4.36 -4.69,7.07 -8.47,4.89l-19.05 -11c-3.78,-2.18 -3.78,-7.6 0,-9.78l2.4 -1.39 0.01 -0 -0.47 -1.38c-1.67,-4.2 -5.77,-7.08 -10.41,-7.08l-12.8 0c-6.13,0 -11.17,5.04 -11.17,11.17l0 7.15c0,6.13 5.04,11.17 11.17,11.17l12.8 0c2.8,0 5.34,-0.99 7.36,-2.77l8.91 5.14zm7.73 -21.26c-2.29,0 -4.14,1.85 -4.14,4.14 0,2.29 1.85,4.14 4.14,4.14 2.29,0 4.14,-1.85 4.14,-4.14 0,-2.29 -1.85,-4.14 -4.14,-4.14z"/>
 </g>
</svg>
