<?xml version="1.0" encoding="UTF-8"?>
<!DOCTYPE svg PUBLIC "-//W3C//DTD SVG 1.1//EN" "http://www.w3.org/Graphics/SVG/1.1/DTD/svg11.dtd">
<!-- Creator: CorelDRAW -->
<svg xmlns="http://www.w3.org/2000/svg" xml:space="preserve" width="6.77083in" height="1.65708in" version="1.1" style="shape-rendering:geometricPrecision; text-rendering:geometricPrecision; image-rendering:optimizeQuality; fill-rule:evenodd; clip-rule:evenodd"
viewBox="0 0 6770.83 1657.08"
 xmlns:xlink="http://www.w3.org/1999/xlink"
 xmlns:xodm="http://www.corel.com/coreldraw/odm/2003">
 <defs>
  <style type="text/css">
   <![CDATA[
    .fil1 {fill:black}
    .fil0 {fill:#084AFF}
   ]]>
  </style>
 </defs>
 <g id="Layer_x0020_1">
  <metadata id="CorelCorpID_0Corel-Layer"/>
  <g id="_2466935220688">
   <path class="fil0" d="M1680.8 1400.9c-133.46,159.83 -332.93,256.18 -543.92,256.18l-427.91 0c-390.26,0 -708.97,-318.68 -708.97,-708.97l0 -239.13c0,-390.27 318.69,-708.98 708.97,-708.98l427.91 0c291.12,0 551.45,181.36 658.51,448.4l261.74 -151.11c126.22,-72.88 283.16,17.74 283.16,163.48l0 735.52c0,145.75 -156.94,236.36 -283.16,163.48l-636.98 -367.76c-126.23,-72.87 -126.23,-254.1 0,-326.97l80.33 -46.38 0.17 -0.09 -15.72 -46.1c-55.74,-140.55 -193,-236.86 -348.04,-236.86l-427.91 0c-205,0 -373.35,168.35 -373.35,373.35l0 239.13c0,205 168.36,373.36 373.35,373.36l427.91 0c93.5,0 178.37,-32.94 246.08,-92.52l297.84 171.94zm258.38 -710.8c-76.45,0 -138.43,61.99 -138.43,138.44 0,76.46 61.98,138.44 138.43,138.44 76.46,0 138.45,-61.98 138.45,-138.44 0,-76.45 -61.99,-138.44 -138.45,-138.44z"/>
   <g>
    <path class="fil0" d="M6398.5 935.23c238.5,0 238.5,-387.85 0,-387.85 -244.13,0 -245.95,387.85 0,387.85zm-959.3 -310.28c-3.38,8.94 -6.19,18.43 -8.42,28.44l293 0c-12.67,-126.37 -153.75,-152.78 -230.28,-100.85 -24.13,16.38 -42.24,40.51 -54.3,72.4zm-40.07 -204.27c133.3,-79.54 333.17,-60.41 438.92,53 71.59,76.77 99.43,182.21 89.2,287.66 -1.29,13.36 -3.66,24.78 -7.11,34.26l-494.56 0c11.07,90.45 73.35,146.09 167.47,146.09l258.57 0 0 168.07 -258.57 0c-140.85,0 -258.59,-63.57 -323.21,-183.58 -60.81,-112.93 -61.08,-264.41 1.94,-374.92 31.46,-55.17 73.91,-98.69 127.35,-130.58zm-283.12 163.54c20.11,54.16 27.2,116.62 21.33,177.12 -1.3,13.36 -3.67,24.78 -7.11,34.26l-494.56 0c11.06,90.44 73.36,146.09 167.46,146.09l277.62 0 0 168.07 -277.62 0c-140.85,0 -258.59,-63.57 -323.21,-183.58 -60.81,-112.93 -61.08,-264.41 1.94,-374.92 64.37,-112.87 176.24,-178.42 308.34,-178.42 151.21,0 273.52,70.55 325.8,211.38zm-475.13 69.17l292.99 0c-12.63,-126.3 -153.7,-152.81 -230.28,-100.85 -33.11,22.48 -53.43,59.17 -62.72,100.85zm-1284.42 456.37c-280.01,0 -486.11,-217.12 -486.11,-497.74 0,-284.25 202.97,-496.45 486.11,-496.45 127.24,0 243.9,42.22 329.67,128 38.78,38.78 70.55,97.51 86.93,144.91l-219.67 -0.11c-47.74,-60.2 -114.62,-91.79 -196.93,-91.79 -180.38,0 -285.71,137.85 -285.71,315.45 0,177.6 104.37,316.74 285.71,316.74 111.32,0 200.36,-62.31 235.3,-161.61l206.59 -0.7c-31,89.63 -42.5,145.59 -112.22,215.31 -85.78,85.78 -202.43,127.99 -329.67,127.99zm491.28 -0l0 -168.07 116.35 0 0 -391.94 -116.35 0 0 -168.07 297.35 0 0 103.41c15.81,-37.16 36.96,-63.73 63.35,-79.49 55.33,-33.06 105.06,-31.67 169.37,-31.67l0 168.07c-67.26,0 -125.06,-6.72 -175.83,43.31 -29.31,28.88 -43.96,69.6 -43.96,122.18l0 234.21 142.21 0 0 168.07 -452.49 0zm2527.49 0c-208.69,0.2 -360.7,-164.27 -360.7,-368.46 0,-204.48 154.88,-368.46 359.41,-368.46 77.02,0 150.38,22.59 202.97,74.78l0 -332.06 193.93 0 0 648.34c0,165.59 -150.49,345.6 -327.89,345.78l-67.71 0.07z"/>
    <g>
     <path class="fil1" d="M3865.98 1541.49c-31.61,0 -59.39,-18.44 -69.36,-48.36l23.59 -9.91c18.37,46.93 78.32,40.36 78.32,9.91 0,-42.07 -95.07,-17.48 -95.07,-83.04 0,-63.17 101.2,-67.72 121.5,-6.84l-23.12 10.14c-19.84,-53.2 -93.69,-24.12 -65.35,10.38 17.09,20.8 89.41,12.49 89.41,67.47 0,32.26 -28.46,50.25 -59.92,50.25zm293.28 -2.83l0 -150.98 -46.71 0 0 -24.77 120.31 0 0 24.77 -46 0 0 150.98 -27.6 0zm331.26 2.83c-37.93,0 -67.23,-25.46 -67.23,-63.69l0 -114.89 27.83 0c0,28.75 -4.29,117.7 5.07,134.23 17.63,31.16 73.96,23.86 73.96,-20.52l0 -113.71 27.6 0c0,39.09 6,123.12 -8.49,147.68 -12.19,20.66 -34.17,30.91 -58.74,30.91zm273.22 -2.83l0 -175.75c52.59,0 108.11,-8.72 136.35,41.76 27.42,49.01 7.19,134 -78.8,134l-57.56 0zm27.83 -24.77c37.16,0 91.53,3.21 91.53,-63.22 0,-66.14 -54.9,-62.99 -91.53,-62.99l0 126.21zm318.05 24.77l0 -175.75 27.83 0 0 175.75 -27.83 0zm320.64 2.83c-119.48,0 -120.52,-181.41 0,-181.41 120.55,0 119.56,181.41 0,181.41zm0 -25.48c83.62,0 83.39,-130.69 0,-130.69 -83.22,0 -83.42,130.69 0,130.69zm354.38 25.48c-31.61,0 -59.39,-18.44 -69.36,-48.36l23.59 -9.91c18.37,46.93 78.32,40.36 78.32,9.91 0,-42.07 -95.07,-17.48 -95.07,-83.04 0,-63.17 101.2,-67.72 121.5,-6.84l-23.12 10.14c-19.84,-53.2 -93.69,-24.12 -65.34,10.38 17.08,20.8 89.41,12.49 89.41,67.47 0,32.26 -28.46,50.25 -59.92,50.25z"/>
     <polygon class="fil1" points="6058.85,1440.26 6770.83,1440.26 6770.83,1462.88 6058.85,1462.88 "/>
     <polygon class="fil1" points="2870.35,1440.26 3582.34,1440.26 3582.34,1462.88 2870.35,1462.88 "/>
    </g>
   </g>
  </g>
 </g>
</svg>
