<?xml version="1.0" encoding="UTF-8"?>
<!DOCTYPE svg PUBLIC "-//W3C//DTD SVG 1.1//EN" "http://www.w3.org/Graphics/SVG/1.1/DTD/svg11.dtd">
<!-- Creator: CorelDRAW -->
<svg xmlns="http://www.w3.org/2000/svg" xml:space="preserve" width="2.08333in" height="0.50987in" version="1.1" style="shape-rendering:geometricPrecision; text-rendering:geometricPrecision; image-rendering:optimizeQuality; fill-rule:evenodd; clip-rule:evenodd"
viewBox="0 0 1753.93 429.25"
 xmlns:xlink="http://www.w3.org/1999/xlink"
 xmlns:xodm="http://www.corel.com/coreldraw/odm/2003">
 <defs>
  <style type="text/css">
   <![CDATA[
    .fil0 {fill:black}
   ]]>
  </style>
 </defs>
 <g id="Layer_x0020_1">
  <metadata id="CorelCorpID_0Corel-Layer"/>
  <g id="_2950319166688">
   <path class="fil0" d="M435.4 362.89c-34.57,41.4 -86.24,66.36 -140.9,66.36l-110.85 0c-101.1,0 -183.65,-82.55 -183.65,-183.65l0 -61.95c0,-101.1 82.55,-183.65 183.65,-183.65l110.85 0c75.41,0 142.85,46.98 170.58,116.15l67.8 -39.14c32.7,-18.88 73.35,4.6 73.35,42.35l0 190.53c0,37.76 -40.66,61.23 -73.35,42.35l-165 -95.27c-32.7,-18.88 -32.7,-65.82 0,-84.7l20.81 -12.02 0.04 -0.02 -4.07 -11.94c-14.44,-36.41 -50,-61.36 -90.16,-61.36l-110.85 0c-53.11,0 -96.71,43.61 -96.71,96.71l0 61.95c0,53.11 43.61,96.71 96.71,96.71l110.85 0c24.22,0 46.2,-8.53 63.74,-23.96l77.15 44.54zm66.93 -184.13c-19.8,0 -35.86,16.06 -35.86,35.86 0,19.8 16.06,35.86 35.86,35.86 19.8,0 35.86,-16.06 35.86,-35.86 0,-19.8 -16.06,-35.86 -35.86,-35.86z"/>
   <g>
    <path class="fil0" d="M1657.49 242.26c61.78,0 61.78,-100.47 0,-100.47 -63.24,0 -63.71,100.47 0,100.47zm-248.5 -80.38c-0.88,2.32 -1.6,4.77 -2.18,7.37l75.9 0c-3.28,-32.73 -39.83,-39.58 -59.65,-26.12 -6.25,4.24 -10.94,10.49 -14.07,18.75zm-10.38 -52.91c34.53,-20.6 86.3,-15.65 113.7,13.73 18.54,19.89 25.76,47.2 23.11,74.51 -0.33,3.46 -0.95,6.42 -1.84,8.87l-128.11 0c2.87,23.43 19,37.85 43.38,37.85l66.98 0 0 43.54 -66.98 0c-36.49,0 -66.99,-16.47 -83.72,-47.55 -15.75,-29.25 -15.82,-68.49 0.5,-97.12 8.15,-14.29 19.14,-25.56 32.99,-33.82zm-73.34 42.36c5.21,14.03 7.05,30.21 5.53,45.88 -0.34,3.46 -0.95,6.42 -1.84,8.87l-128.11 0c2.86,23.43 19,37.85 43.38,37.85l71.92 0 0 43.54 -71.92 0c-36.48,0 -66.98,-16.46 -83.72,-47.55 -15.75,-29.25 -15.82,-68.49 0.5,-97.12 16.68,-29.24 45.65,-46.22 79.87,-46.22 39.17,0 70.85,18.28 84.39,54.76zm-123.08 17.92l75.9 0c-3.27,-32.72 -39.82,-39.58 -59.65,-26.12 -8.58,5.82 -13.84,15.33 -16.24,26.12zm-332.72 118.22c-72.53,0 -125.93,-56.24 -125.93,-128.94 0,-73.63 52.58,-128.6 125.93,-128.6 32.96,0 63.18,10.93 85.4,33.16 10.04,10.05 18.28,25.26 22.52,37.54l-56.9 -0.03c-12.37,-15.59 -29.69,-23.78 -51.01,-23.78 -46.73,0 -74.01,35.71 -74.01,81.71 0,46.01 27.04,82.05 74.01,82.05 28.84,0 51.9,-16.14 60.95,-41.86l53.52 -0.18c-8.03,23.21 -11.01,37.71 -29.07,55.77 -22.22,22.22 -52.44,33.16 -85.4,33.16zm127.26 -0l0 -43.54 30.14 0 0 -101.53 -30.14 0 0 -43.54 77.03 0 0 26.79c4.1,-9.63 9.58,-16.51 16.41,-20.59 14.33,-8.56 27.22,-8.21 43.87,-8.21l0 43.54c-17.42,0 -32.39,-1.74 -45.54,11.22 -7.59,7.48 -11.39,18.03 -11.39,31.65l0 60.67 36.84 0 0 43.54 -117.21 0zm654.73 0c-54.06,0.05 -93.44,-42.56 -93.44,-95.45 0,-52.97 40.12,-95.44 93.1,-95.44 19.95,0 38.96,5.85 52.58,19.37l0 -86.02 50.23 0 0 167.95c0,42.89 -38.98,89.53 -84.94,89.57l-17.54 0.02z"/>
    <g>
     <path class="fil0" d="M1001.46 399.31c-8.19,0 -15.39,-4.78 -17.97,-12.53l6.11 -2.57c4.76,12.16 20.29,10.45 20.29,2.57 0,-10.9 -24.63,-4.53 -24.63,-21.51 0,-16.36 26.21,-17.54 31.47,-1.77l-5.99 2.63c-5.14,-13.78 -24.27,-6.25 -16.93,2.69 4.42,5.39 23.16,3.23 23.16,17.48 0,8.36 -7.37,13.02 -15.52,13.02zm75.97 -0.74l0 -39.11 -12.1 0 0 -6.42 31.16 0 0 6.42 -11.92 0 0 39.11 -7.15 0zm85.81 0.74c-9.82,0 -17.41,-6.6 -17.41,-16.5l0 -29.76 7.21 0c0,7.44 -1.11,30.49 1.31,34.77 4.57,8.07 19.16,6.18 19.16,-5.32l0 -29.45 7.15 0c0,10.13 1.55,31.89 -2.2,38.25 -3.16,5.35 -8.85,8.01 -15.22,8.01zm70.78 -0.74l0 -45.52c13.62,0 28,-2.26 35.32,10.82 7.1,12.69 1.86,34.71 -20.41,34.71l-14.91 0zm7.21 -6.42c9.63,0 23.71,0.84 23.71,-16.38 0,-17.13 -14.22,-16.31 -23.71,-16.31l0 32.69zm82.39 6.42l0 -45.52 7.21 0 0 45.52 -7.21 0zm83.06 0.74c-30.95,0 -31.22,-47 0,-47 31.23,0 30.97,47 0,47zm0 -6.6c21.66,0 21.6,-33.85 0,-33.85 -21.56,0 -21.61,33.85 0,33.85zm91.8 6.6c-8.19,0 -15.39,-4.78 -17.97,-12.53l6.11 -2.57c4.76,12.16 20.29,10.45 20.29,2.57 0,-10.9 -24.63,-4.53 -24.63,-21.51 0,-16.36 26.21,-17.54 31.47,-1.77l-5.99 2.63c-5.14,-13.78 -24.27,-6.25 -16.93,2.69 4.42,5.39 23.16,3.23 23.16,17.48 0,8.36 -7.37,13.02 -15.52,13.02z"/>
     <polygon class="fil0" points="1569.5,373.09 1753.93,373.09 1753.93,378.95 1569.5,378.95 "/>
     <polygon class="fil0" points="743.54,373.09 927.98,373.09 927.98,378.95 743.54,378.95 "/>
    </g>
   </g>
  </g>
 </g>
</svg>
